<svg width="17" height="14" viewBox="0 0 17 14" fill="none" xmlns="http://www.w3.org/2000/svg">
<path d="M0.883533 4.63003C0.341533 4.85753 0.00511687 5.26252 3.35318e-05 5.83586C-0.00346647 6.23669 0.267032 6.77504 0.809032 6.99504C1.03228 7.08588 4.16687 7.50754 4.16687 7.50754C4.16687 7.50754 4.99653 10.13 5.29553 11.0517C5.38212 11.3184 5.43145 11.4492 5.62145 11.6234C5.94378 11.9184 6.4887 11.8259 6.72437 11.5892C7.34787 10.9642 8.33337 10 8.33337 10L8.74812 10.3375C8.74812 10.3375 10.5899 11.8067 11.5966 12.4984C12.1894 12.9059 12.6008 13.3309 13.268 13.3334C13.6078 13.335 14.1529 13.1659 14.5132 12.7534C14.7513 12.4809 14.904 12.045 14.9631 11.6542C15.0975 10.7667 16.6734 1.17003 16.6667 0.834201C16.656 0.298367 16.2053 -0.003306 15.8306 2.73335e-05C15.5953 0.00252734 15.4014 0.0708703 14.9699 0.202537C11.632 1.2217 1.10462 4.53753 0.883533 4.63003ZM13.3334 2.50003C13.3334 2.50003 8.93503 6.32837 7.17745 8.09004C6.61437 8.65421 6.57462 9.62253 6.57462 9.62253L5.66612 6.71586L13.3334 2.50003Z" fill="black"/>
</svg>
