<svg width="21" height="20" viewBox="0 0 21 20" fill="none" xmlns="http://www.w3.org/2000/svg">
<path d="M11.29 1.69075C10.991 0.76975 9.68796 0.76975 9.38796 1.69075L7.86896 6.36475C7.80354 6.5654 7.67631 6.74021 7.50549 6.86415C7.33466 6.98809 7.12901 7.05481 6.91796 7.05475H2.00396C1.03596 7.05475 0.631963 8.29475 1.41596 8.86475L5.39196 11.7528C5.56276 11.8769 5.68986 12.052 5.75507 12.2528C5.82028 12.4536 5.82024 12.6699 5.75496 12.8708L4.23696 17.5448C3.93696 18.4657 4.99196 19.2327 5.77496 18.6628L9.75096 15.7747C9.92185 15.6505 10.1277 15.5836 10.339 15.5836C10.5502 15.5836 10.7561 15.6505 10.927 15.7747L14.903 18.6628C15.686 19.2327 16.741 18.4668 16.441 17.5448L14.923 12.8708C14.8577 12.6699 14.8576 12.4536 14.9229 12.2528C14.9881 12.052 15.1152 11.8769 15.286 11.7528L19.262 8.86475C20.045 8.29475 19.643 7.05475 18.674 7.05475H13.759C13.5481 7.05459 13.3427 6.98778 13.172 6.86385C13.0014 6.73993 12.8743 6.56524 12.809 6.36475L11.29 1.69075Z" stroke="#919191" stroke-width="2" stroke-linecap="round" stroke-linejoin="round"/>
</svg>
